<svg xmlns="http://www.w3.org/2000/svg" viewBox="0 0 220.25 220.25"><defs><style>.cls-1{fill:#FFFFFF;}</style></defs><title>Ресурс 1</title><g id="Шар_2" data-name="Шар 2"><g id="Шар_1-2" data-name="Шар 1"><path class="cls-1" d="M110.13,0A110.13,110.13,0,1,0,220.25,110.13,110.12,110.12,0,0,0,110.13,0Zm42.94,181.13c-3.52,0-6.35-1.92-8.49-5.73L120,124a13.59,13.59,0,0,0-4.14-4.9,11.48,11.48,0,0,0-5.62-1.71v26.07H96.51V117.31H86.42v63.82H67V41.37H86.42v61.06H96.51V72.23h13.73v30a10.22,10.22,0,0,0,4.35-1.85,13.6,13.6,0,0,0,3.6-4.72l25-48.83a13.36,13.36,0,0,1,3.56-4,8.18,8.18,0,0,1,4.83-1.49h15.86L136.3,98.8a22.34,22.34,0,0,1-4.68,5.77,19.23,19.23,0,0,1-5.88,3.38,20.31,20.31,0,0,1,8.42,4.28,31,31,0,0,1,6.39,8.28l30,60.62Z"/></g></g></svg>